<svg width="5498" height="5408" viewBox="0 0 5498 5408" fill="none" xmlns="http://www.w3.org/2000/svg"><path d="M4706.84 1398.96C3948.8 865.602 912.357 1829.62 630.235 2664.61 348.114 3499.59 2484.34 5199.95 3516.68 4921.45c1032.33-278.49 1948.19-2989.14 1190.16-3522.49z" fill="#607D8B" fill-opacity=".07"/><path d="M3486.63 3410.57c535.36-444.54 587.28-2424.366 80.66-2649.267C3060.67 536.401 1432.63 1816.54 1395.78 2482.38c-36.86 665.83 1555.5 1372.73 2090.85 928.19v0z" stroke="#fff" stroke-width="10" stroke-miterlimit="10"/><path d="M1155.74 676.424c402.7-186.533 1806.51 486.256 2128.32 1047.306 321.82 561.05 153.32 1979.41-288.96 2159.39-442.27 179.98-1813.77-657.13-2101.564-1186.59C605.745 2167.06 753.042 862.957 1155.74 676.424h0z" stroke="#FFCA28" stroke-width="25" stroke-miterlimit="10"/></svg>